<?xml version="1.0" standalone="no"?>
<!DOCTYPE svg PUBLIC "-//W3C//DTD SVG 20010904//EN"
 "http://www.w3.org/TR/2001/REC-SVG-20010904/DTD/svg10.dtd">
<svg version="1.0" xmlns="http://www.w3.org/2000/svg"
 width="150.000000pt" height="150.000000pt" viewBox="0 0 150.000000 150.000000"
 preserveAspectRatio="xMidYMid meet">
<metadata>
Created by potrace 1.13, written by Peter Selinger 2001-2015
</metadata>
<g transform="translate(0.000000,150.000000) scale(0.100000,-0.100000)"
fill="#000000" stroke="none">
<path d="M281 1290 c-59 -13 -146 -66 -187 -116 -18 -22 -46 -67 -61 -100 -22
-49 -27 -73 -27 -144 -1 -137 49 -250 165 -377 39 -43 63 -88 94 -175 38 -108
116 -172 210 -172 128 0 226 121 195 242 -6 25 -18 58 -26 74 -14 27 -16 28
-42 14 -62 -33 -64 -36 -46 -83 29 -73 -6 -133 -77 -133 -59 0 -93 36 -124
130 -28 83 -59 134 -132 213 -87 94 -129 236 -100 337 38 128 164 210 278 180
95 -26 142 -91 141 -194 -1 -34 -6 -76 -11 -95 -6 -19 -10 -35 -8 -36 1 -1 24
-9 50 -18 l48 -16 9 25 c34 88 30 216 -8 291 -60 115 -206 180 -341 153z"/>
<path d="M284 1086 c-36 -16 -76 -66 -93 -115 -6 -19 -10 -35 -9 -36 2 -1 19
-5 38 -9 34 -6 37 -4 48 27 26 71 91 90 121 35 14 -25 14 -30 -7 -70 -12 -24
-34 -58 -47 -77 -36 -49 -41 -90 -17 -144 36 -80 113 -106 159 -53 34 39 32
99 -5 135 -15 15 -34 30 -42 33 -12 5 -13 9 -2 24 48 71 57 163 20 209 -39 50
-105 66 -164 41z"/>
<path d="M997 1053 c-3 -5 -20 -99 -38 -210 -18 -112 -36 -199 -40 -195 -3 4
-19 57 -34 117 -31 120 -38 135 -66 135 -14 0 -25 -20 -48 -92 l-29 -93 -66
-3 c-66 -3 -66 -3 -66 -32 l0 -30 84 0 c91 0 98 4 114 60 11 42 13 39 47 -100
43 -172 45 -178 62 -184 9 -4 22 -1 30 6 7 7 27 102 44 211 18 109 34 195 37
192 3 -2 19 -66 37 -142 44 -188 68 -200 121 -57 15 41 30 71 34 67 5 -4 18
-33 31 -63 37 -90 58 -96 105 -29 26 38 28 39 85 39 59 0 59 0 59 30 l0 30
-72 0 c-60 0 -76 -4 -95 -22 l-23 -21 -26 59 c-14 32 -30 69 -35 82 -5 14 -17
22 -32 22 -20 0 -28 -11 -52 -71 -15 -38 -29 -69 -31 -67 -1 2 -19 75 -39 163
-19 88 -40 170 -45 183 -9 21 -44 31 -53 15z"/>
</g>
</svg>
